<?xml version="1.0" encoding="UTF-8"?>
<svg version="1.1" xmlns="http://www.w3.org/2000/svg" width="24" height="24">
<path d="M0 0 C3.12578143 1.6720747 5.39281175 3.7856235 7 7 C7.51512617 11.09157355 7.94367269 15.23589546 5.953125 18.95703125 C3.55501226 21.85592636 1.60351712 23.79811835 -2.171875 24.2734375 C-9.98876369 24.58137554 -9.98876369 24.58137554 -13.5625 21.625 C-17.3057723 17.59378368 -17.39037018 14.90519941 -17.359375 9.55078125 C-16.78039966 5.44131496 -15.00085071 3.78650423 -12 1 C-8.27533151 -0.86233425 -4.05504687 -0.57130829 0 0 Z " fill="#1C2215" transform="translate(17,0)"/>
<path d="M0 0 C3.12578143 1.6720747 5.39281175 3.7856235 7 7 C7.14640501 8.64142541 7.22096589 10.2898141 7.25 11.9375 C7.27578125 12.81277344 7.3015625 13.68804687 7.328125 14.58984375 C6.94290357 17.4193869 6.19305243 18.25132925 4 20 C3.01 19.34 2.02 18.68 1 18 C0.9551365 15.66709801 0.96111651 13.33300933 1 11 C-0.1708264 6.10943639 -0.1708264 6.10943639 -4 3 C-5.98 3 -7.96 3 -10 3 C-10.99 7.95 -11.98 12.9 -13 18 C-13.99 18.33 -14.98 18.66 -16 19 C-17.86233425 15.27533151 -17.57130829 11.05504687 -17 7 C-13.1702042 -0.1594317 -7.52001569 -1.05948154 0 0 Z " fill="#B2AC8A" transform="translate(17,0)"/>
<path d="M0 0 C2.1624861 1.67197096 2.91371725 2.67289009 3.6171875 5.33984375 C3.70226563 6.19707031 3.78734375 7.05429688 3.875 7.9375 C3.97554687 8.79214844 4.07609375 9.64679687 4.1796875 10.52734375 C3.95686037 13.59363878 3.16577942 14.8491914 1 17 C0.01 17 -0.98 17 -2 17 C-1.505 16.1028125 -1.505 16.1028125 -1 15.1875 C0.20787988 12.94613529 0.20787988 12.94613529 0 10 C-0.99 9.67 -1.98 9.34 -3 9 C-2.34 7.35 -1.68 5.7 -1 4 C-1.66 4 -2.32 4 -3 4 C-3.33 5.98 -3.66 7.96 -4 10 C-4.66 10 -5.32 10 -6 10 C-6 9.34 -6 8.68 -6 8 C-6.66 8 -7.32 8 -8 8 C-8.33 9.32 -8.66 10.64 -9 12 C-9.90765496 7.3709597 -10.45297884 4.17006403 -8 0 C-4.65044556 -1.11651815 -3.32740404 -0.99822121 0 0 Z " fill="#43382C" transform="translate(15,3)"/>
<path d="M0 0 C0 3 0 3 -1 5 C-0.34 5 0.32 5 1 5 C0.34 8.96 -0.32 12.92 -1 17 C-1.99 17.33 -2.98 17.66 -4 18 C-5.86011115 14.27977771 -5.58206663 10.04969762 -5 6 C-3.58655585 3.47952267 -2.12439088 2.01817133 0 0 Z " fill="#BECA99" transform="translate(5,1)"/>
<path d="M0 0 C0.66 0 1.32 0 2 0 C1.67 1.65 1.34 3.3 1 5 C1.99 5 2.98 5 4 5 C3.25 9.75 3.25 9.75 1 12 C-1.93453261 11.63318342 -2.86437246 11.13562754 -5 9 C-5.125 6.375 -5.125 6.375 -5 4 C-4.34 4 -3.68 4 -3 4 C-3 4.66 -3 5.32 -3 6 C-2.34 6 -1.68 6 -1 6 C-0.67 4.02 -0.34 2.04 0 0 Z " fill="#D1A083" transform="translate(12,7)"/>
<path d="M0 0 C0.25028811 1.58013217 0.47440946 3.16442306 0.6875 4.75 C0.81511719 5.63171875 0.94273438 6.5134375 1.07421875 7.421875 C0.98267037 10.60197657 0.25361442 11.7927987 -2 14 C-2.99 14 -3.98 14 -5 14 C-4.505 13.1028125 -4.505 13.1028125 -4 12.1875 C-2.79212012 9.94613529 -2.79212012 9.94613529 -3 7 C-3.99 6.67 -4.98 6.34 -6 6 C-3.84615385 0 -3.84615385 0 0 0 Z " fill="#1B1910" transform="translate(18,6)"/>
<path d="M0 0 C0.89847656 0.00257812 1.79695312 0.00515625 2.72265625 0.0078125 C3.61855469 0.00523438 4.51445312 0.00265625 5.4375 0 C7.78515625 0.1328125 7.78515625 0.1328125 9.78515625 1.1328125 C9.45515625 2.1228125 9.12515625 3.1128125 8.78515625 4.1328125 C8.45515625 3.4728125 8.12515625 2.8128125 7.78515625 2.1328125 C6.14546875 2.3803125 6.14546875 2.3803125 4.47265625 2.6328125 C0.78515625 3.1328125 0.78515625 3.1328125 -2.21484375 3.1328125 C-2.54484375 4.1228125 -2.87484375 5.1128125 -3.21484375 6.1328125 C-3.87484375 6.1328125 -4.53484375 6.1328125 -5.21484375 6.1328125 C-2.92349533 0.1753066 -2.92349533 0.1753066 0 0 Z " fill="#E7886E" transform="translate(9.21484375,-0.1328125)"/>
<path d="M0 0 C0.99 0.495 0.99 0.495 2 1 C2.33 1.99 2.66 2.98 3 4 C3.99 4.33 4.98 4.66 6 5 C5.67 6.65 5.34 8.3 5 10 C2 10 2 10 0 9 C0 6.03 0 3.06 0 0 Z " fill="#D77763" transform="translate(18,9)"/>
<path d="M0 0 C2.78211944 0.37596209 4.5879284 0.67318459 6.8125 2.4375 C8 4 8 4 8 6 C5.21788056 5.62403791 3.4120716 5.32681541 1.1875 3.5625 C-0 2 -0 2 0 0 Z " fill="#0D927D" transform="translate(2,18)"/>
<path d="M0 0 C0.66 0.99 1.32 1.98 2 3 C-0.1875 3.75 -0.1875 3.75 -3 4 C-5.8125 2.0625 -5.8125 2.0625 -8 0 C-4.67212881 -1.1092904 -3.3006216 -1.01557588 0 0 Z " fill="#625C53" transform="translate(15,3)"/>
<path d="M0 0 C1.32 0.33 2.64 0.66 4 1 C3.3125 2.9375 3.3125 2.9375 2 5 C-0.625 5.75 -0.625 5.75 -3 6 C-2.01 4.02 -1.02 2.04 0 0 Z " fill="#158D77" transform="translate(17,18)"/>
<path d="M0 0 C2.97 0 5.94 0 9 0 C7.515 1.98 7.515 1.98 6 4 C4.125 3.6875 4.125 3.6875 2 3 C1.34 2.01 0.68 1.02 0 0 Z " fill="#B6724B" transform="translate(7,15)"/>
<path d="M0 0 C0.598125 0.165 1.19625 0.33 1.8125 0.5 C4.11344336 1.1114124 4.11344336 1.1114124 7 1 C7 2.65 7 4.3 7 6 C3.63279613 4.60667426 2.0140476 3.0210714 0 0 Z " fill="#A4E4CA" transform="translate(14,2)"/>
<path d="M0 0 C2.31 0 4.62 0 7 0 C6.34 1.32 5.68 2.64 5 4 C3.68 4 2.36 4 1 4 C0.67 2.68 0.34 1.36 0 0 Z " fill="#023A23" transform="translate(9,20)"/>
<path d="M0 0 C0 0.99 0 1.98 0 3 C-0.66 3 -1.32 3 -2 3 C-2.33 4.32 -2.66 5.64 -3 7 C-3.99 6.67 -4.98 6.34 -6 6 C-3.84615385 0 -3.84615385 0 0 0 Z " fill="#483B27" transform="translate(18,6)"/>
</svg>
