<?xml version="1.0" encoding="UTF-8"?>
<svg version="1.1" xmlns="http://www.w3.org/2000/svg" width="14" height="14">
<path d="M0 0 C0.66 0 1.32 0 2 0 C2 0.66 2 1.32 2 2 C3.32 2 4.64 2 6 2 C6 1.34 6 0.68 6 0 C6.66 0 7.32 0 8 0 C8 0.66 8 1.32 8 2 C8.99 2.33 9.98 2.66 11 3 C11.02688151 4.64574566 11.04634123 6.29161413 11.0625 7.9375 C11.07410156 8.85402344 11.08570313 9.77054688 11.09765625 10.71484375 C11 13 11 13 10 14 C8.00200428 14.09873816 6.00042842 14.12971799 4 14.125 C2.906875 14.12757812 1.81375 14.13015625 0.6875 14.1328125 C-2 14 -2 14 -3 13 C-3.07205511 11.31391034 -3.08386068 9.62499341 -3.0625 7.9375 C-3.05347656 7.01839844 -3.04445312 6.09929688 -3.03515625 5.15234375 C-3.02355469 4.44207031 -3.01195312 3.73179687 -3 3 C-2.01 2.67 -1.02 2.34 0 2 C0 1.34 0 0.68 0 0 Z M1 5 C1 5.33 1 5.66 1 6 C2.98 6 4.96 6 7 6 C7 5.67 7 5.34 7 5 C5.02 5 3.04 5 1 5 Z " fill="#0054B7" transform="translate(3,0)"/>
</svg>
