<?xml version="1.0" encoding="UTF-8"?>
<svg version="1.1" xmlns="http://www.w3.org/2000/svg" width="14" height="15">
<path d="M0 0 C2 2 2 2 2.3125 4.875 C1.9653943 8.34605699 1.53651257 9.63841933 -1 12 C-3.375 12.9375 -3.375 12.9375 -6 13 C-8.2831838 11.8584081 -10.19012683 10.80987317 -12 9 C-12.29629238 5.6667107 -12.35806333 3.63087348 -10.6875 0.6875 C-7.05393192 -2.94606808 -4.349819 -1.75843747 0 0 Z M-8 1 C-10.31543207 3.76988076 -10.31543207 3.76988076 -9.6875 6.625 C-9.2258486 8.93501965 -9.2258486 8.93501965 -8 10 C-5.04195427 10.33340471 -5.04195427 10.33340471 -2 10 C0.31543207 7.23011924 0.31543207 7.23011924 -0.3125 4.375 C-0.7741514 2.06498035 -0.7741514 2.06498035 -2 1 C-4.95804573 0.66659529 -4.95804573 0.66659529 -8 1 Z " fill="#000000" transform="translate(12,2)"/>
<path d="M0 0 C0.66 0 1.32 0 2 0 C2 0.99 2 1.98 2 3 C2.99 3 3.98 3 5 3 C5 3.66 5 4.32 5 5 C3.35 5 1.7 5 0 5 C0 3.35 0 1.7 0 0 Z " fill="#000000" transform="translate(6,4)"/>
</svg>
