<?xml version="1.0" encoding="UTF-8"?>
<svg version="1.1" xmlns="http://www.w3.org/2000/svg" width="17" height="22">
<path d="M0 0 C4.89790853 -0.42797259 8.72309129 -0.6895307 13.125 1.6875 C16.02205865 6.80563695 16.06341783 12.25754372 15 18 C13.3515625 20.3828125 13.3515625 20.3828125 11 22 C8.01953125 22.42578125 8.01953125 22.42578125 4.8125 22.3125 C3.74644531 22.28800781 2.68039062 22.26351563 1.58203125 22.23828125 C-1 22 -1 22 -2 21 C-2.08651611 19.58429877 -2.10704904 18.164405 -2.09765625 16.74609375 C-2.09443359 15.89208984 -2.09121094 15.03808594 -2.08789062 14.15820312 C-2.07951172 13.26037109 -2.07113281 12.36253906 -2.0625 11.4375 C-2.05798828 10.53580078 -2.05347656 9.63410156 -2.04882812 8.70507812 C-2.03700225 6.46998686 -2.0205222 4.23502563 -2 2 C-1.34 2 -0.68 2 0 2 C0 1.34 0 0.68 0 0 Z " fill="#206AC1" transform="translate(2,0)"/>
<path d="M0 0 C0.66 0 1.32 0 2 0 C2.33 5.28 2.66 10.56 3 16 C6.96 16.33 10.92 16.66 15 17 C14.34 17.99 13.68 18.98 13 20 C10.21484375 20.328125 10.21484375 20.328125 6.9375 20.25 C5.85339844 20.23453125 4.76929688 20.2190625 3.65234375 20.203125 C1 20 1 20 0 19 C-0.08651611 17.58429877 -0.10704904 16.164405 -0.09765625 14.74609375 C-0.09443359 13.89208984 -0.09121094 13.03808594 -0.08789062 12.15820312 C-0.07951172 11.26037109 -0.07113281 10.36253906 -0.0625 9.4375 C-0.05798828 8.53580078 -0.05347656 7.63410156 -0.04882812 6.70507812 C-0.03700225 4.46998686 -0.0205222 2.23502563 0 0 Z " fill="#89CFF9" transform="translate(0,2)"/>
</svg>
