<?xml version="1.0" encoding="UTF-8"?>
<svg version="1.1" xmlns="http://www.w3.org/2000/svg" width="20" height="20">
<path d="M0 0 C4.09131007 0.9331058 5.57237355 2.17306228 8.2265625 5.5078125 C9.21130245 9.38968593 8.98565864 12.73658817 7.40625 16.421875 C5.7423406 18.87701405 3.98318623 20.31587486 1.1015625 21.046875 C-2.87023154 21.30182124 -6.00961232 20.82464662 -9.3359375 18.5703125 C-12.17347726 15.00519845 -12.62351797 13.18385855 -12.28125 8.734375 C-10.77250663 2.11911562 -6.6516207 -0.51166313 0 0 Z M-2.7734375 6.5078125 C-2.7734375 7.4978125 -2.7734375 8.4878125 -2.7734375 9.5078125 C-3.7634375 9.5078125 -4.7534375 9.5078125 -5.7734375 9.5078125 C-5.7734375 10.1678125 -5.7734375 10.8278125 -5.7734375 11.5078125 C-4.7834375 11.5078125 -3.7934375 11.5078125 -2.7734375 11.5078125 C-2.7734375 12.4978125 -2.7734375 13.4878125 -2.7734375 14.5078125 C-2.1134375 14.5078125 -1.4534375 14.5078125 -0.7734375 14.5078125 C-0.7734375 13.5178125 -0.7734375 12.5278125 -0.7734375 11.5078125 C0.2165625 11.5078125 1.2065625 11.5078125 2.2265625 11.5078125 C2.2265625 10.8478125 2.2265625 10.1878125 2.2265625 9.5078125 C1.2365625 9.5078125 0.2465625 9.5078125 -0.7734375 9.5078125 C-0.7734375 8.5178125 -0.7734375 7.5278125 -0.7734375 6.5078125 C-1.4334375 6.5078125 -2.0934375 6.5078125 -2.7734375 6.5078125 Z " fill="#FFFFFF" transform="translate(11.7734375,-0.5078125)"/>
</svg>
