<?xml version="1.0" encoding="UTF-8"?>
<svg version="1.1" xmlns="http://www.w3.org/2000/svg" width="18" height="18">
<path d="M0 0 C2.5 1.4375 2.5 1.4375 4 4 C4.17657911 6.36700098 4.12612619 8.61026162 3.9453125 10.9765625 C3.77418454 13.23268097 3.77418454 13.23268097 6 15 C6 15.99 6 16.98 6 18 C3.83125748 17.49396008 2.00032373 17.00016187 0 16 C-1.27875 16.061875 -2.5575 16.12375 -3.875 16.1875 C-6.87072783 16.20384033 -7.84667905 16.09199257 -10.5 14.5 C-12.62153384 10.96411027 -12.791013 8.02098277 -12 4 C-9.15467665 -0.74220558 -5.08013991 -0.98896166 0 0 Z M-5 2 C-6.65 3.65 -8.3 5.3 -10 7 C-9.36078035 9.47627099 -9.36078035 9.47627099 -8 12 C-5.47627099 13.36078035 -5.47627099 13.36078035 -3 14 C-1.35 12.35 0.3 10.7 2 9 C1.36078035 6.52372901 1.36078035 6.52372901 0 4 C-2.52372901 2.63921965 -2.52372901 2.63921965 -5 2 Z " fill="#0054B7" transform="translate(12,0)"/>
</svg>
